<svg width="16" height="15" viewBox="0 0 16 15" fill="none" xmlns="http://www.w3.org/2000/svg">
<path d="M6.8874 0.701405V1.11315C6.8874 1.25199 6.78022 1.37169 6.64242 1.40042C5.82584 1.55841 5.05518 1.86004 4.36619 2.28615C4.2386 2.36275 4.08038 2.3436 3.97831 2.24785L3.66188 1.94622L3.04944 1.61586C2.56459 1.97494 2.11037 2.40105 1.72759 2.85589L2.08485 3.43042C2.22775 3.60278 2.64115 3.80386 2.437 4.09113C1.98788 4.73747 1.66124 5.46521 1.49282 6.22646C1.4622 6.36531 1.33461 6.45627 1.1866 6.45627H0.73748L0.0535885 6.62384C-0.0178628 7.20316 -0.0178628 7.79684 0.0535885 8.37616L0.73748 8.54373C0.982456 8.57245 1.42647 8.42882 1.49282 8.79748C1.63573 9.51564 2.00319 10.3056 2.4319 10.9137C2.51356 11.0334 2.49314 11.1818 2.39107 11.2775L2.07464 11.5792L1.72249 12.1489C2.10526 12.6037 2.55949 13.0298 3.04434 13.3889L3.65678 13.0538C3.84051 12.9197 4.05486 12.5319 4.36108 12.7186C5.05008 13.1447 5.82073 13.4464 6.63732 13.6044C6.99458 13.6762 6.85167 14.0879 6.8823 14.3034L7.06603 14.9497C7.68357 15.0168 8.31643 15.0168 8.93397 14.9497L9.1177 14.3082C9.14833 14.0784 8.99522 13.6618 9.3882 13.5996C10.1537 13.4607 10.9907 13.116 11.644 12.7186C11.7716 12.642 11.9298 12.6612 12.0319 12.7569L12.3483 13.0538L12.9608 13.3889C13.4456 13.0298 13.8998 12.6037 14.2826 12.1489L13.9254 11.5744L13.6089 11.2775C13.5018 11.177 13.4915 11.0238 13.5681 10.9137C14.0172 10.2673 14.3439 9.54437 14.5123 8.77833C14.5429 8.63948 14.6705 8.54373 14.8134 8.54373H15.2625L15.9464 8.37616C16.0179 7.79205 16.0179 7.20316 15.9464 6.62384L15.2625 6.45627C15.0175 6.42755 14.5735 6.56639 14.5072 6.20252C14.3643 5.48436 13.9968 4.69917 13.5681 4.08634C13.4864 3.96665 13.5069 3.81823 13.6089 3.72247L13.9254 3.42563L14.2775 2.8511C13.8947 2.39627 13.4405 1.97016 12.9557 1.61108L12.3432 1.94143C12.1493 2.08027 11.9451 2.47287 11.6236 2.27178C10.9959 1.86961 10.1231 1.54405 9.36268 1.40042C9.21978 1.37169 9.1177 1.25199 9.1177 1.11315V0.691829L8.93397 0.0502713C8.31643 -0.0167571 7.68357 -0.0167571 7.06603 0.0502713L6.8874 0.701405ZM11.4552 4.26349C9.54641 2.47287 6.45359 2.47287 4.54482 4.26349C2.64115 6.0541 2.64115 8.95547 4.54482 10.7461C6.45359 12.5367 9.54641 12.5367 11.4552 10.7461C13.364 8.95547 13.364 6.0541 11.4552 4.26349ZM8 2.33881C11.0418 2.33881 13.5069 4.65129 13.5069 7.50479C13.5069 10.3583 11.0418 12.6708 8 12.6708C4.95821 12.6708 2.49314 10.3583 2.49314 7.50479C2.49314 4.65608 4.95821 2.33881 8 2.33881ZM8.31132 10.0567C8.31132 10.4397 7.68868 10.4397 7.68868 10.0567V7.08347L7.61722 7.19837C7.41308 7.52873 6.87719 7.24146 7.08134 6.91111L7.7295 5.8578C7.85199 5.66151 8.14801 5.66629 8.26539 5.8578L8.91356 6.91111C9.1177 7.24146 8.58182 7.53351 8.37767 7.20316L8.30622 7.08825V10.0567H8.31132ZM10.363 10.0567C10.363 10.4397 9.74035 10.4397 9.74035 10.0567V6.04453L9.6689 6.15943C9.46475 6.48979 8.92887 6.19773 9.13301 5.86738L9.78118 4.81408C9.89856 4.62735 10.1997 4.6082 10.3273 4.82844L10.9703 5.86738C11.1745 6.19773 10.6335 6.48979 10.4344 6.15464L10.363 6.03974V10.0567ZM6.26475 10.0567C6.26475 10.4397 5.64211 10.4397 5.64211 10.0567V8.20859L5.57065 8.32349C5.36651 8.65385 4.83062 8.36658 5.03477 8.03623L5.68293 6.98292C5.80032 6.78663 6.10143 6.78663 6.21882 6.98292L6.86699 8.03623C7.07113 8.36658 6.53014 8.65863 6.3311 8.32349L6.25965 8.20859V10.0567H6.26475Z" fill="#786FA6"/>
</svg>
