<svg width="13" height="12" viewBox="0 0 13 12" fill="none" xmlns="http://www.w3.org/2000/svg">
<g clip-path="url(#clip0_1005_772)">
<path fill-rule="evenodd" clip-rule="evenodd" d="M0 9.58984H2.4375V10.3934H0V9.58984Z" fill="#C44569"/>
<path fill-rule="evenodd" clip-rule="evenodd" d="M4.875 9.58984H13V10.3934H4.875V9.58984Z" fill="#C44569"/>
<path fill-rule="evenodd" clip-rule="evenodd" d="M3.65625 8.78599C2.98315 8.78599 2.4375 9.32565 2.4375 9.99135C2.4375 10.6571 2.98315 11.1967 3.65625 11.1967C4.32935 11.1967 4.875 10.6571 4.875 9.99135C4.875 9.32565 4.32935 8.78599 3.65625 8.78599ZM3.65625 7.98242C2.53444 7.98242 1.625 8.88186 1.625 9.99135C1.625 11.1008 2.53444 12.0003 3.65625 12.0003C4.77806 12.0003 5.6875 11.1008 5.6875 9.99135C5.6875 8.88186 4.77806 7.98242 3.65625 7.98242Z" fill="#C44569"/>
<path fill-rule="evenodd" clip-rule="evenodd" d="M10.5625 5.57227H13V6.37584H10.5625V5.57227Z" fill="#C44569"/>
<path fill-rule="evenodd" clip-rule="evenodd" d="M0 5.57227H8.125V6.37584H0V5.57227Z" fill="#C44569"/>
<path fill-rule="evenodd" clip-rule="evenodd" d="M9.34375 4.76842C8.67065 4.76842 8.125 5.30807 8.125 5.97377C8.125 6.63947 8.67065 7.17913 9.34375 7.17913C10.0168 7.17913 10.5625 6.63947 10.5625 5.97377C10.5625 5.30807 10.0168 4.76842 9.34375 4.76842ZM9.34375 3.96484C8.22194 3.96484 7.3125 4.86429 7.3125 5.97377C7.3125 7.08326 8.22194 7.9827 9.34375 7.9827C10.4656 7.9827 11.375 7.08326 11.375 5.97377C11.375 4.86429 10.4656 3.96484 9.34375 3.96484Z" fill="#C44569"/>
<path fill-rule="evenodd" clip-rule="evenodd" d="M4.875 1.55273H13V2.35631H4.875V1.55273Z" fill="#C44569"/>
<path fill-rule="evenodd" clip-rule="evenodd" d="M0 1.55273H2.4375V2.35631H0V1.55273Z" fill="#C44569"/>
<path fill-rule="evenodd" clip-rule="evenodd" d="M3.65625 0.750837C2.98315 0.750837 2.4375 1.29049 2.4375 1.95619C2.4375 2.62189 2.98315 3.16155 3.65625 3.16155C4.32935 3.16155 4.875 2.62189 4.875 1.95619C4.875 1.29049 4.32935 0.750837 3.65625 0.750837ZM3.65625 -0.0527344C2.53444 -0.0527344 1.625 0.846696 1.625 1.95619C1.625 3.06568 2.53444 3.96512 3.65625 3.96512C4.77806 3.96512 5.6875 3.06568 5.6875 1.95619C5.6875 0.846696 4.77806 -0.0527344 3.65625 -0.0527344Z" fill="#C44569"/>
</g>
<defs>
<clipPath id="clip0_1005_772">
<rect width="13" height="12" fill="white"/>
</clipPath>
</defs>
</svg>
