<svg width="12" height="12" viewBox="0 0 12 12" fill="none" xmlns="http://www.w3.org/2000/svg">
<path d="M9.55063 0.747522C9.16588 1.19889 8.62289 1.71691 7.8945 1.39451C7.82297 1.35735 7.73897 1.35352 7.66418 1.38358C7.5894 1.41418 7.53087 1.47538 7.50433 1.55188L7.40028 1.83602C7.65877 2.00596 7.88204 2.22399 8.05924 2.47864H3.94069C4.11789 2.224 4.34116 2.00597 4.59965 1.83602L4.4956 1.55188C4.31352 1.16117 3.93907 1.53002 3.65023 1.48631C3.21508 1.45735 2.81624 1.23058 2.56642 0.869928C2.44449 0.794519 2.36157 0.669383 2.3399 0.526766C2.31823 0.384695 2.35995 0.239882 2.4537 0.131146C2.5339 0.04754 2.64391 0 2.75933 0C2.87475 0 2.98477 0.04754 3.06496 0.131146C3.20423 0.261745 3.45568 0.586331 3.6112 0.612015C3.66431 0.615293 3.71796 0.60655 3.76727 0.585785C4.10217 0.448081 4.4815 0.470486 4.79798 0.646987C5.115 0.82403 5.335 1.13551 5.39732 1.49506C5.794 1.40326 6.20584 1.40326 6.60252 1.49506C6.67188 1.11255 6.91628 0.785239 7.26147 0.611469C7.60721 0.437699 8.0131 0.437699 8.35828 0.612015C8.56312 0.584694 8.78259 0.269945 8.93486 0.131147C9.10448 -0.0344258 9.37489 -0.0327892 9.54233 0.134972C9.70978 0.302727 9.71374 0.575388 9.55063 0.747522ZM12 3.39674V2.76724C11.9967 2.52845 11.8033 2.33665 11.5665 2.33665C11.3297 2.33665 11.1362 2.52845 11.133 2.76724V3.39674C11.1319 3.91696 10.7124 4.33772 10.1965 4.33663H9.5506C9.27423 3.84483 8.86075 3.33499 8.25003 3.35304H6.43353V7.1825C6.43353 7.42403 6.23953 7.61965 6.00001 7.61965C5.76048 7.61965 5.56648 7.42403 5.56648 7.1825V3.35304H3.74998C3.1696 3.42899 2.66834 3.80057 2.4234 4.33663H1.80346C1.28756 4.33772 0.868129 3.91696 0.867047 3.39674V2.76724C0.867047 2.52571 0.67305 2.33009 0.433524 2.33009C0.193997 2.33009 0 2.52571 0 2.76724V3.39674C0.00596098 3.91914 0.230856 4.41475 0.61885 4.76011C1.0074 5.10602 1.52274 5.26994 2.03762 5.21093C1.87504 5.70547 1.78293 6.2202 1.76449 6.74104H0.433565C0.194038 6.74104 4.16748e-05 6.93666 4.16748e-05 7.17819C4.16748e-05 7.41972 0.194038 7.61535 0.433565 7.61535H1.82514C1.90805 8.1432 2.08255 8.6525 2.34104 9.11915H1.80347C1.32551 9.11861 0.867061 9.30932 0.528913 9.64975C0.190764 9.98964 0.000554929 10.4514 1.38916e-05 10.9333V11.5628C1.38916e-05 11.8044 0.194011 12 0.433537 12C0.673064 12 0.867061 11.8044 0.867061 11.5628V10.9333C0.868145 10.4131 1.28757 9.99237 1.80347 9.99346H2.97398C3.73807 10.8738 4.84195 11.3781 6.00213 11.3781C7.16231 11.3781 8.26616 10.8738 9.03027 9.99346H10.1964C10.7123 9.99237 11.1318 10.4131 11.1329 10.9333V11.5628C11.1329 11.8044 11.3269 12 11.5664 12C11.8059 12 11.9999 11.8044 11.9999 11.5628V10.9333C11.9994 10.4514 11.8092 9.98964 11.471 9.64975C11.1329 9.30932 10.6744 9.11861 10.1964 9.11915H9.6502C9.90381 8.6503 10.0783 8.14211 10.1661 7.61535H11.5664C11.8059 7.61535 11.9999 7.41972 11.9999 7.17819C11.9999 6.93666 11.8059 6.74104 11.5664 6.74104H10.2312C10.2258 6.21973 10.1347 5.7028 9.96238 5.21093C10.4772 5.26995 10.9925 5.10602 11.3812 4.76011C11.7692 4.41475 11.994 3.91914 12 3.39674Z" fill="#C44569"/>
</svg>
