<svg width="16" height="13" viewBox="0 0 16 13" fill="none" xmlns="http://www.w3.org/2000/svg">
<g clip-path="url(#clip0_1005_784)">
<path fill-rule="evenodd" clip-rule="evenodd" d="M10.917 9.37127C10.7619 9.76816 10.4808 10.1109 10.1116 10.3534C9.74228 10.5959 9.30257 10.7264 8.85173 10.7273H7.44729L3.94951 12.9014C3.87649 12.9465 3.79151 12.9716 3.70411 12.9739C3.61672 12.9762 3.53038 12.9556 3.45478 12.9144C3.37918 12.8733 3.31732 12.8131 3.27614 12.7408C3.23497 12.6685 3.21611 12.5869 3.22169 12.5051L3.34987 10.7273H2.19822C1.61566 10.7257 1.05743 10.5081 0.645533 10.1218C0.233632 9.73563 0.00154806 9.21226 0 8.66611V4.90994C0.00173562 4.3639 0.233902 3.8407 0.645783 3.45462C1.05766 3.06855 1.61578 2.85098 2.19822 2.84944H4.95004V2.08444C4.95164 1.53832 5.18374 1.01499 5.59564 0.628801C6.00754 0.242617 6.56574 0.0249769 7.14827 0.0234375H13.8018C14.3843 0.0249769 14.9425 0.242617 15.3544 0.628801C15.7663 1.01499 15.9984 1.53832 16 2.08444V5.84077C15.9984 6.38687 15.7662 6.91015 15.3543 7.2963C14.9425 7.68245 14.3843 7.90007 13.8018 7.9016H12.6501L12.7781 9.67944C12.7838 9.76124 12.765 9.84291 12.7239 9.91525C12.6827 9.98759 12.6209 10.0477 12.5453 10.0889C12.4697 10.1301 12.3833 10.1507 12.2959 10.1484C12.2085 10.1461 12.1235 10.121 12.0505 10.0759L10.917 9.37127ZM10.475 6.03877C10.3713 6.03874 10.2699 6.06754 10.1837 6.12152C10.0975 6.17551 10.0302 6.25226 9.99054 6.34207C9.95083 6.43187 9.94042 6.5307 9.96063 6.62606C9.98084 6.72141 10.0308 6.809 10.1041 6.87776C10.1774 6.94651 10.2708 6.99334 10.3725 7.01232C10.4742 7.03129 10.5796 7.02157 10.6754 6.98437C10.7712 6.94718 10.8531 6.88418 10.9107 6.80335C10.9684 6.72252 10.9991 6.62749 10.9991 6.53027C10.9991 6.46573 10.9856 6.40183 10.9593 6.34219C10.9329 6.28256 10.8943 6.22838 10.8457 6.18274C10.797 6.1371 10.7392 6.10089 10.6756 6.07619C10.612 6.05149 10.5439 6.03877 10.475 6.03877ZM9.63947 3.23144C9.63947 3.02355 9.72755 2.82418 9.88435 2.67718C10.0411 2.53019 10.2538 2.4476 10.4756 2.4476C10.6973 2.4476 10.91 2.53019 11.0668 2.67718C11.2236 2.82418 11.3116 3.02355 11.3116 3.23144C11.3116 3.49444 11.0057 3.72744 10.7316 3.9361C10.3502 4.22627 10.005 4.48927 10.005 4.94977V5.44294C10.005 5.55994 10.0546 5.67216 10.1428 5.75489C10.2311 5.83762 10.3508 5.8841 10.4756 5.8841C10.6004 5.8841 10.7201 5.83762 10.8083 5.75489C10.8966 5.67216 10.9461 5.55994 10.9461 5.44294V4.94944C10.9461 4.90544 11.1255 4.76894 11.3234 4.61827C11.7627 4.28394 12.2528 3.91077 12.2528 3.2311C12.2414 2.79628 12.0492 2.38284 11.7171 2.07907C11.3851 1.7753 10.9395 1.60526 10.4756 1.60526C10.0116 1.60526 9.56603 1.7753 9.23397 2.07907C8.90191 2.38284 8.70968 2.79628 8.69831 3.2311C8.69831 3.34811 8.74789 3.46032 8.83614 3.54306C8.92439 3.62579 9.04408 3.67227 9.16889 3.67227C9.29369 3.67227 9.41339 3.62579 9.50164 3.54306C9.58989 3.46032 9.63947 3.34811 9.63947 3.2311V3.23144ZM4.95058 3.73144H2.19822C1.86525 3.73271 1.54629 3.85728 1.31084 4.07802C1.07539 4.29875 0.942513 4.59777 0.941156 4.90994V8.66611C0.942513 8.97827 1.07539 9.27729 1.31084 9.49802C1.54629 9.71876 1.86525 9.84333 2.19822 9.84461H3.85244C3.9169 9.84471 3.98065 9.85723 4.03974 9.88139C4.09883 9.90554 4.15199 9.94081 4.19594 9.98502C4.2399 10.0292 4.2737 10.0814 4.29525 10.1384C4.3168 10.1953 4.32565 10.2558 4.32124 10.3161L4.22311 11.6759L7.02222 9.9351C7.10388 9.87652 7.20384 9.84478 7.30667 9.84477H8.85067C9.14814 9.84357 9.43562 9.744 9.66248 9.5636C9.88935 9.38321 10.041 9.13355 10.0908 8.8586L8.55111 7.9016H7.14667C6.56444 7.89967 6.00668 7.68188 5.59513 7.29577C5.18359 6.90967 4.95168 6.38661 4.95004 5.84077V3.73144H4.95058ZM8.97778 7.1096L11.7769 8.84944L11.6788 7.48977C11.6746 7.42959 11.6836 7.36924 11.7053 7.31245C11.727 7.25566 11.7608 7.20362 11.8047 7.15955C11.8486 7.11547 11.9017 7.08029 11.9607 7.05617C12.0196 7.03204 12.0832 7.01949 12.1476 7.01927H13.8018C14.1348 7.018 14.4537 6.89343 14.6892 6.67269C14.9246 6.45195 15.0575 6.15294 15.0588 5.84077V2.08444C15.0575 1.77224 14.9247 1.47318 14.6892 1.25241C14.4538 1.03164 14.1348 0.907044 13.8018 0.905771H7.14827C6.81526 0.907044 6.49628 1.03164 6.26082 1.25241C6.02537 1.47318 5.89251 1.77224 5.8912 2.08444V5.84077C5.89256 6.15294 6.02543 6.45195 6.26089 6.67269C6.49634 6.89343 6.81529 7.018 7.14827 7.01927H8.69209C8.79534 7.01903 8.89578 7.05079 8.97778 7.1096Z" fill="#786FA6"/>
</g>
<defs>
<clipPath id="clip0_1005_784">
<rect width="16" height="13" fill="white"/>
</clipPath>
</defs>
</svg>
