<svg width="16" height="15" viewBox="0 0 16 15" fill="none" xmlns="http://www.w3.org/2000/svg">
<g clip-path="url(#clip0_1013_1893)">
<path d="M5.54104 -0.0527344H14.6695C15.461 -0.0527344 16.0842 0.602438 16.0842 1.39554C16.0842 5.39554 16.0842 9.41278 16.0842 13.4128C16.0842 14.2231 15.4442 14.8611 14.6695 14.8611H5.54104C5.28841 14.8611 5.0863 14.6542 5.0863 14.3955V13.4645C5.0863 13.2059 5.28841 12.999 5.54104 12.999H13.8274C14.08 12.999 14.2821 12.7921 14.2821 12.5335V2.27485C14.2821 2.01623 14.08 1.80933 13.8274 1.80933H5.54104C5.28841 1.80933 5.0863 1.60244 5.0863 1.34382V0.412783C5.0863 0.154162 5.28841 -0.0527344 5.54104 -0.0527344Z" fill="#E15F41"/>
<path d="M0.218964 7.74003L2.93054 10.5159C3.09896 10.6883 3.40212 10.6883 3.57054 10.5159L4.21054 9.86072C4.37896 9.68831 4.37896 9.37796 4.21054 9.20555L3.36844 8.34348H9.04423C9.29686 8.34348 9.49897 8.13658 9.49897 7.87796V6.94693C9.49897 6.68831 9.29686 6.48141 9.04423 6.48141H3.36844L4.21054 5.61934C4.37896 5.44693 4.37896 5.13658 4.21054 4.96417L3.57054 4.309C3.40212 4.13658 3.09896 4.13658 2.93054 4.309L0.218964 7.08486C0.0337013 7.25727 0.0337013 7.56762 0.218964 7.74003Z" fill="#E15F41"/>
</g>
<defs>
<clipPath id="clip0_1013_1893">
<rect width="16" height="15" fill="white"/>
</clipPath>
</defs>
</svg>
