<svg width="165" height="34" viewBox="0 0 165 34" fill="none" xmlns="http://www.w3.org/2000/svg">
<path d="M45.7526 25.1304H42.6988V0.288723H45.7526V11.8607C46.2269 10.6481 46.9903 9.69531 48.043 9.00238C49.1072 8.30944 50.3217 7.96298 51.6867 7.96298C53.5259 7.96298 54.9834 8.52887 56.0592 9.66067C57.1465 10.7925 57.6902 12.3169 57.6902 14.234V25.1304H54.6017V14.9443C54.6017 13.5238 54.2547 12.444 53.5606 11.7048C52.8666 10.9541 51.8776 10.5788 50.5936 10.5788C49.2171 10.5788 48.0661 11.1274 47.1407 12.2245C46.2153 13.3101 45.7526 14.7133 45.7526 16.4341V25.1304Z" fill="black"/>
<path d="M59.7827 20.3492C59.7827 18.6746 60.3553 17.3869 61.5005 16.4861C62.6457 15.5737 64.161 15.1175 66.0465 15.1175C67.2495 15.1175 68.441 15.2965 69.6208 15.6546L71.1651 16.0876V14.338C71.1651 13.1369 70.7776 12.2072 70.0026 11.5489C69.2391 10.8791 68.2154 10.5442 66.9314 10.5442C65.7284 10.5442 64.7336 10.856 63.947 11.4796C63.172 12.0917 62.6746 12.9406 62.4548 14.0262L59.6786 13.2466C60.0257 11.6182 60.8354 10.3305 62.1078 9.38349C63.3802 8.43648 64.9881 7.96298 66.9314 7.96298C69.2102 7.96298 70.9742 8.5462 72.2235 9.71264C73.4843 10.8791 74.1148 12.5075 74.1148 14.5978V25.1304H71.1651V22.4626C70.7371 23.375 69.9968 24.1084 68.9441 24.6627C67.9031 25.2055 66.7116 25.4769 65.3698 25.4769C63.7966 25.4769 62.4664 25.0207 61.379 24.1084C60.3148 23.1498 59.7827 21.8967 59.7827 20.3492ZM71.1651 18.8594V18.4956L69.5861 18.0279C68.4063 17.6814 67.3652 17.5082 66.4629 17.5082C65.364 17.5082 64.5022 17.7391 63.8776 18.2011C63.253 18.6515 62.9406 19.304 62.9406 20.1586C62.9406 20.9555 63.2414 21.5965 63.8429 22.0815C64.4444 22.555 65.2946 22.7918 66.3935 22.7918C67.8163 22.7918 68.9673 22.4395 69.8464 21.7351C70.7255 21.019 71.1651 20.0605 71.1651 18.8594Z" fill="black"/>
<path d="M77.0749 8.30944H80.1287V10.7694C80.4988 9.86855 81.0541 9.17561 81.7944 8.69056C82.5347 8.2055 83.4138 7.96298 84.4318 7.96298C85.7851 7.96298 86.8898 8.40183 87.7458 9.27955C88.6134 10.1573 89.0472 11.2429 89.0472 12.5363C89.0472 13.2177 88.9777 13.8471 88.8389 14.4246H85.8545C85.924 13.9164 85.9587 13.5007 85.9587 13.1773C85.9587 12.392 85.7157 11.7741 85.2299 11.3237C84.7556 10.8733 84.1021 10.6481 83.2692 10.6481C82.3207 10.6481 81.5572 10.9946 80.9789 11.6875C80.4121 12.3804 80.1287 13.2928 80.1287 14.4246V25.1304H77.0749V8.30944Z" fill="black"/>
<path d="M90.9488 8.30944H94.0026V10.6827C94.8933 8.86957 96.4087 7.96298 98.5486 7.96298C99.5897 7.96298 100.498 8.2517 101.273 8.82914C102.048 9.40659 102.574 10.2266 102.852 11.2891C103.291 10.2381 103.951 9.42391 104.83 8.84647C105.72 8.25747 106.709 7.96298 107.797 7.96298C109.382 7.96298 110.631 8.44226 111.545 9.40082C112.458 10.3478 112.915 11.699 112.915 13.4545V25.1304H109.862V14.0954C109.862 13.0676 109.572 12.2534 108.994 11.6529C108.427 11.0408 107.687 10.7347 106.773 10.7347C105.813 10.7347 105.021 11.0812 104.396 11.7741C103.771 12.4555 103.459 13.4198 103.459 14.6671V25.1304H100.371V14.234C100.371 13.1138 100.093 12.2534 99.5377 11.6529C98.9824 11.0408 98.2305 10.7347 97.282 10.7347C96.3219 10.7347 95.5353 11.0927 94.9223 11.8088C94.3092 12.5132 94.0026 13.5238 94.0026 14.8404V25.1304H90.9488V8.30944Z" fill="black"/>
<path d="M117.246 22.9997C115.661 21.3366 114.869 19.2463 114.869 16.7286C114.869 14.2109 115.661 12.1206 117.246 10.4575C118.831 8.7945 120.878 7.96298 123.389 7.96298C125.066 7.96298 126.558 8.34986 127.865 9.12364C129.172 9.88587 130.179 10.931 130.884 12.2592C131.601 13.5873 131.96 15.0771 131.96 16.7286C131.96 19.2347 131.156 21.3193 129.548 22.9823C127.94 24.6454 125.887 25.4769 123.389 25.4769C120.878 25.4769 118.831 24.6512 117.246 22.9997ZM128.802 16.7286C128.802 14.9501 128.293 13.518 127.275 12.4324C126.292 11.3006 124.996 10.7347 123.389 10.7347C121.827 10.7347 120.537 11.2948 119.519 12.4151C118.501 13.5353 117.992 14.9732 117.992 16.7286C117.992 18.484 118.501 19.9219 119.519 21.0421C120.537 22.1624 121.827 22.7225 123.389 22.7225C124.973 22.7225 126.269 22.1681 127.275 21.0594C128.293 19.9392 128.802 18.4956 128.802 16.7286Z" fill="black"/>
<path d="M136.915 25.1304H133.862V8.30944H136.915V11.0465C137.505 10.0649 138.28 9.30842 139.241 8.77717C140.212 8.23438 141.288 7.96298 142.468 7.96298C144.284 7.96298 145.724 8.51732 146.788 9.62602C147.864 10.7232 148.402 12.2476 148.402 14.1994V25.1304H145.313V15.1175C145.313 13.6624 144.978 12.5537 144.307 11.7914C143.636 11.0292 142.688 10.6481 141.461 10.6481C140.154 10.6481 139.067 11.1332 138.199 12.1033C137.343 13.0618 136.915 14.3322 136.915 15.9144V25.1304Z" fill="black"/>
<path d="M161.738 8.30944H165L154.208 32.1637H150.928L155.093 22.965L148.655 8.30944H152.004L156.724 19.3791L161.738 8.30944Z" fill="black"/>
<path d="M16.8298 3.90164C16.8298 1.74682 18.5313 0 20.6301 0C22.7289 0 24.4304 1.74682 24.4304 3.90164V12.2623C24.4304 14.4171 22.7289 16.1639 20.6301 16.1639C18.5313 16.1639 16.8298 14.4171 16.8298 12.2623V3.90164Z" fill="#E15F41"/>
<path d="M28.7736 17.8361C30.8724 17.8361 32.5739 19.5829 32.5739 21.7377C32.5739 23.8925 30.8724 25.6393 28.7736 25.6393H20.6301C18.5313 25.6393 16.8298 23.8925 16.8298 21.7377C16.8298 19.5829 18.5313 17.8361 20.6301 17.8361L28.7736 17.8361Z" fill="#C44569"/>
<path d="M15.744 30.0984C15.744 32.2532 14.0426 34 11.9437 34C9.84491 34 8.14346 32.2532 8.14346 30.0984L8.14346 21.7377C8.14346 19.5829 9.84491 17.8361 11.9437 17.8361C14.0426 17.8361 15.744 19.5829 15.744 21.7377L15.744 30.0984Z" fill="#786FA6"/>
<path d="M3.80028 16.1639C1.70144 16.1639 -2.75229e-07 14.4171 0 12.2623C2.75229e-07 10.1075 1.70145 8.36065 3.80028 8.36065L11.9437 8.36065C14.0426 8.36065 15.744 10.1075 15.744 12.2623C15.744 14.4171 14.0426 16.1639 11.9437 16.1639L3.80028 16.1639Z" fill="#F3A683"/>
</svg>
