<svg width="155" height="141" viewBox="0 0 155 141" fill="none" xmlns="http://www.w3.org/2000/svg">
<path d="M42.8858 128.012C43.0955 128.026 43.3066 128.036 43.519 128.043V136.571C43.3066 136.576 43.0955 136.584 42.8858 136.596V128.012Z" fill="black"/>
<path d="M41.1672 127.833C41.2872 127.851 41.4078 127.867 41.529 127.883V136.713C41.4078 136.727 41.2872 136.743 41.1672 136.759V127.833Z" fill="black"/>
<path d="M39.6295 127.544C39.6896 127.558 39.7499 127.572 39.8104 127.585V136.995C39.7499 137.007 39.6896 137.02 39.6295 137.034V127.544Z" fill="black"/>
<path d="M51.2077 137.868V126.8C50.7165 126.994 50.2029 127.167 49.67 127.319V137.341C50.2031 137.496 50.7167 137.672 51.2077 137.868Z" fill="black"/>
<path d="M48.3132 137.002V127.65C47.9288 127.728 47.5365 127.796 47.1373 127.853V136.791C47.5365 136.851 47.9288 136.921 48.3132 137.002Z" fill="black"/>
<path d="M45.7804 136.636V127.998C45.4819 128.02 45.1802 128.035 44.8759 128.045V136.582C45.1802 136.594 45.4819 136.612 45.7804 136.636Z" fill="black"/>
<path d="M59.0883 135.379C57.5762 135.379 56.1541 134.16 56.1541 132.26C56.1541 130.307 57.5942 129.249 58.9083 129.249C60.2944 129.249 61.1944 130.038 61.4645 131.382L62.8865 130.952C62.4725 129.016 60.9791 127.866 58.9089 127.866C56.5868 127.866 54.642 129.715 54.642 132.26C54.642 134.949 56.4268 136.761 59.109 136.761C61.2511 136.761 62.8145 135.505 63.3006 133.354L61.9145 132.834C61.5725 134.429 60.7444 135.379 59.0883 135.379Z" fill="#090909"/>
<path d="M64.1611 127.866V136.761H65.7092V131.149C65.7092 130.002 66.3393 129.249 67.2933 129.249C68.1394 129.249 68.6614 129.733 68.6614 130.522C68.6614 130.683 68.6434 130.898 68.6074 131.149H70.1195C70.1915 130.862 70.2275 130.54 70.2275 130.199C70.2275 128.909 69.2956 127.866 67.9096 127.866C67.1095 127.866 66.0872 128.146 65.7092 129.061V127.866H64.1611Z" fill="#090909"/>
<path d="M77.2775 133.479C76.9355 134.698 76.1255 135.379 74.8114 135.379C73.2993 135.379 72.1112 134.393 72.0932 132.547H78.2676C78.3396 132.225 78.3756 131.884 78.3756 131.508C78.3756 130.396 78.0336 129.518 77.3315 128.873C76.6295 128.209 75.7107 127.866 74.5767 127.866C72.1465 127.866 70.5091 129.823 70.5091 132.26C70.5091 135.003 72.3412 136.761 74.8434 136.761C76.8055 136.761 78.0516 135.72 78.6276 133.999L77.2775 133.479ZM72.0932 131.436C72.2552 130.092 73.2453 129.249 74.5594 129.249C75.8554 129.249 76.8455 129.966 76.8455 131.185L76.8275 131.436H72.0932Z" fill="#090909"/>
<path d="M78.9103 133.999C79.4143 135.451 80.7421 136.761 82.6682 136.761C84.5943 136.761 86.0884 135.65 86.0884 134.073C86.0884 132.657 85.0984 131.814 83.1002 131.545C81.4261 131.312 80.8141 130.99 80.8141 130.255C80.8141 129.592 81.5341 129.161 82.4702 129.161C83.3882 129.161 84.0543 129.592 84.3423 130.452L85.5484 129.789C85.0264 128.588 84.046 127.866 82.4439 127.866C81.5618 127.866 80.8501 128.122 80.256 128.57C79.68 129 79.392 129.556 79.392 130.237C79.392 131.581 80.364 132.388 82.3262 132.675C84.0543 132.908 84.5763 133.356 84.5763 134.162C84.5763 134.897 83.8743 135.399 82.7402 135.399C81.4441 135.399 80.7298 134.643 80.2437 133.442L78.9103 133.999Z" fill="#090909"/>
<path d="M90.9807 135.379C89.4686 135.379 88.0465 134.16 88.0465 132.26C88.0465 130.307 89.4866 129.249 90.8007 129.249C92.1868 129.249 93.0868 130.038 93.3568 131.382L94.7789 130.952C94.3649 129.016 92.9146 127.866 90.8445 127.866C88.5223 127.866 86.5344 129.715 86.5344 132.26C86.5344 134.949 88.3623 136.761 91.0444 136.761C93.1866 136.761 94.7069 135.505 95.193 133.354L93.8069 132.834C93.4649 134.429 92.6368 135.379 90.9807 135.379Z" fill="#090909"/>
<path d="M102.3 133.479C101.958 134.698 101.148 135.379 99.8338 135.379C98.3217 135.379 97.1336 134.393 97.1156 132.547H103.29C103.362 132.225 103.398 131.884 103.398 131.508C103.398 130.396 103.056 129.518 102.354 128.873C101.652 128.209 100.712 127.866 99.5784 127.866C97.1482 127.866 95.5315 129.823 95.5315 132.26C95.5315 135.003 97.3429 136.761 99.845 136.761C101.807 136.761 103.074 135.72 103.65 133.999L102.3 133.479ZM97.1156 131.436C97.2776 130.092 98.2677 129.249 99.5818 129.249C100.878 129.249 101.868 129.966 101.868 131.185L101.85 131.436H97.1156Z" fill="#090909"/>
<path d="M106.106 136.761V131.902C106.106 130.271 107.115 129.249 108.411 129.249C109.635 129.249 110.355 130.02 110.355 131.508V136.761H111.921V131.042C111.921 129.052 110.73 127.866 108.912 127.866C107.706 127.866 106.701 128.46 106.106 129.446V127.866H104.558V136.761H106.106Z" fill="#090909"/>
<path d="M112.91 132.368C112.91 134.967 114.555 136.761 116.913 136.761C118.209 136.761 119.283 136.06 119.859 135.039V136.761H121.353V125.042H119.787V129.608C119.229 128.55 118.16 127.866 116.846 127.866C114.524 127.866 112.91 129.733 112.91 132.368ZM119.859 132.35C119.859 134.25 118.491 135.361 117.159 135.361C115.755 135.361 114.458 134.268 114.458 132.35C114.458 130.45 115.773 129.285 117.159 129.285C118.491 129.285 119.859 130.468 119.859 132.35Z" fill="#090909"/>
<path d="M122.329 132.314C122.329 134.824 124.073 136.761 126.647 136.761C129.203 136.761 130.988 134.824 130.988 132.314C130.988 129.805 129.239 127.866 126.647 127.866C124.073 127.866 122.329 129.805 122.329 132.314ZM129.386 132.314C129.386 134.107 128.252 135.343 126.65 135.343C125.066 135.343 123.913 134.089 123.913 132.314C123.913 130.54 125.066 129.285 126.65 129.285C127.46 129.285 128.108 129.572 128.612 130.145C129.134 130.701 129.386 131.436 129.386 132.314Z" fill="#090909"/>
<path d="M3.87027 121.175H0V89.583H3.87027V104.299C4.47134 102.757 5.43891 101.546 6.77298 100.664C8.12171 99.7831 9.66102 99.3425 11.3909 99.3425C13.7219 99.3425 15.569 100.062 16.9324 101.502C18.3105 102.941 18.9995 104.88 18.9995 107.318V121.175H15.0853V108.221C15.0853 106.414 14.6455 105.041 13.7659 104.101C12.8862 103.146 11.6328 102.669 10.0055 102.669C8.26098 102.669 6.8023 103.367 5.62949 104.762C4.45668 106.143 3.87027 107.927 3.87027 110.116V121.175Z" fill="black"/>
<path d="M21.6515 115.094C21.6515 112.965 22.3772 111.327 23.8286 110.182C25.2799 109.021 27.2004 108.441 29.59 108.441C31.1146 108.441 32.6246 108.669 34.12 109.124L36.0771 109.675V107.45C36.0771 105.922 35.586 104.74 34.6038 103.903C33.6362 103.051 32.3388 102.625 30.7115 102.625C29.1868 102.625 27.9261 103.022 26.9292 103.815C25.947 104.593 25.3166 105.673 25.038 107.053L21.5196 106.062C21.9594 103.991 22.9856 102.353 24.5982 101.149C26.2108 99.9447 28.2486 99.3425 30.7115 99.3425C33.5995 99.3425 35.8352 100.084 37.4185 101.568C39.0164 103.051 39.8154 105.122 39.8154 107.78V121.175H36.0771V117.782C35.5347 118.942 34.5964 119.875 33.2624 120.58C31.9429 121.27 30.4329 121.616 28.7324 121.616C26.7386 121.616 25.0527 121.035 23.6746 119.875C22.3259 118.656 21.6515 117.063 21.6515 115.094ZM36.0771 113.2V112.737L34.076 112.142C32.5807 111.702 31.2612 111.481 30.1178 111.481C28.725 111.481 27.6329 111.775 26.8412 112.363C26.0496 112.935 25.6537 113.765 25.6537 114.852C25.6537 115.866 26.0349 116.681 26.7972 117.298C27.5596 117.9 28.6371 118.201 30.0298 118.201C31.833 118.201 33.2917 117.753 34.4058 116.857C35.52 115.946 36.0771 114.727 36.0771 113.2Z" fill="black"/>
<path d="M43.5669 99.7831H47.4372V102.911C47.9063 101.766 48.61 100.885 49.5483 100.268C50.4865 99.651 51.6007 99.3425 52.8908 99.3425C54.606 99.3425 56.0061 99.9006 57.0909 101.017C58.1904 102.133 58.7402 103.514 58.7402 105.159C58.7402 106.025 58.6522 106.826 58.4763 107.56H54.694C54.7819 106.914 54.8259 106.385 54.8259 105.974C54.8259 104.975 54.5181 104.189 53.9023 103.616C53.3013 103.044 52.473 102.757 51.4174 102.757C50.2153 102.757 49.2477 103.198 48.5147 104.079C47.7964 104.96 47.4372 106.121 47.4372 107.56V121.175H43.5669V99.7831Z" fill="black"/>
<path d="M61.1503 99.7831H65.0206V102.801C66.1494 100.495 68.0699 99.3425 70.782 99.3425C72.1014 99.3425 73.2522 99.7097 74.2345 100.444C75.2167 101.178 75.8837 102.221 76.2356 103.572C76.7926 102.236 77.6283 101.2 78.7424 100.466C79.8713 99.7171 81.1247 99.3425 82.5028 99.3425C84.5112 99.3425 86.0945 99.9521 87.2526 101.171C88.4108 102.375 88.9899 104.094 88.9899 106.326V121.175H85.1196V107.141C85.1196 105.834 84.7531 104.799 84.0201 104.035C83.3017 103.257 82.3635 102.867 81.2053 102.867C79.9886 102.867 78.9843 103.308 78.1927 104.189C77.401 105.056 77.0052 106.282 77.0052 107.868V121.175H73.091V107.318C73.091 105.893 72.7391 104.799 72.0354 104.035C71.3318 103.257 70.3788 102.867 69.1767 102.867C67.9599 102.867 66.963 103.323 66.1861 104.233C65.4091 105.129 65.0206 106.414 65.0206 108.089V121.175H61.1503V99.7831Z" fill="black"/>
<path d="M94.4786 118.465C92.4702 116.35 91.466 113.692 91.466 110.49C91.466 107.288 92.4702 104.63 94.4786 102.515C96.4871 100.4 99.0819 99.3425 102.263 99.3425C104.389 99.3425 106.28 99.8346 107.937 100.819C109.593 101.788 110.869 103.117 111.763 104.806C112.672 106.495 113.126 108.39 113.126 110.49C113.126 113.677 112.107 116.328 110.07 118.443C108.032 120.558 105.43 121.616 102.263 121.616C99.0819 121.616 96.4871 120.565 94.4786 118.465ZM109.124 110.49C109.124 108.228 108.479 106.407 107.189 105.026C105.943 103.587 104.301 102.867 102.263 102.867C100.284 102.867 98.6494 103.58 97.3593 105.004C96.0692 106.429 95.4242 108.258 95.4242 110.49C95.4242 112.722 96.0692 114.551 97.3593 115.976C98.6494 117.4 100.284 118.113 102.263 118.113C104.272 118.113 105.914 117.408 107.189 115.998C108.479 114.573 109.124 112.737 109.124 110.49Z" fill="black"/>
<path d="M119.407 121.175H115.536V99.7831H119.407V103.264C120.154 102.016 121.137 101.054 122.353 100.378C123.585 99.6877 124.948 99.3425 126.444 99.3425C128.745 99.3425 130.57 100.048 131.919 101.457C133.282 102.853 133.964 104.791 133.964 107.274V121.175H130.05V108.441C130.05 106.591 129.625 105.181 128.775 104.211C127.924 103.242 126.722 102.757 125.168 102.757C123.512 102.757 122.133 103.374 121.034 104.608C119.949 105.827 119.407 107.442 119.407 109.455V121.175Z" fill="black"/>
<path d="M150.866 99.7831H155L141.322 130.119H137.166L142.444 118.421L134.285 99.7831H138.529L144.511 113.861L150.866 99.7831Z" fill="black"/>
<path d="M18.0203 137.933V127.102H22.9134C23.9237 127.102 24.748 127.371 25.3863 127.91C26.0247 128.449 26.3439 129.119 26.3439 129.919C26.3439 130.448 26.1956 130.929 25.899 131.362C25.6075 131.795 25.2129 132.125 24.7153 132.351C25.3587 132.563 25.8538 132.893 26.2006 133.341C26.5525 133.789 26.7284 134.345 26.7284 135.01C26.7284 135.841 26.3941 136.536 25.7256 137.095C25.0571 137.654 24.2278 137.933 23.2376 137.933H18.0203ZM19.4377 131.732H22.9737C23.5869 131.732 24.0669 131.586 24.4138 131.294C24.7606 130.997 24.934 130.586 24.934 130.063C24.934 129.574 24.748 129.184 24.3761 128.892C24.0041 128.6 23.5367 128.454 22.9737 128.454H19.4377V131.732ZM19.4377 136.589H23.1924C23.7955 136.589 24.2881 136.428 24.6701 136.105C25.0521 135.778 25.2431 135.35 25.2431 134.821C25.2431 134.293 25.0521 133.857 24.6701 133.515C24.2931 133.172 23.8005 133.001 23.1924 133.001H19.4377V136.589Z" fill="black"/>
<path d="M32.478 130.599H33.8954L29.2059 141H27.7809L29.5904 136.989L26.7932 130.599H28.2483L30.2991 135.426L32.478 130.599Z" fill="black"/>
<path d="M74.3714 9.02376C74.3714 4.04008 78.4041 0 83.3786 0C88.3531 0 92.3858 4.04007 92.3858 9.02376V28.3604C92.3858 33.3441 88.3531 37.3841 83.3786 37.3841C78.4041 37.3841 74.3714 33.3441 74.3714 28.3604V9.02376Z" fill="#E15F41"/>
<path d="M102.68 41.2515C107.654 41.2515 111.687 45.2915 111.687 50.2752C111.687 55.2589 107.654 59.299 102.68 59.299H83.3786C78.4041 59.299 74.3714 55.2589 74.3714 50.2752C74.3714 45.2915 78.4041 41.2515 83.3786 41.2515L102.68 41.2515Z" fill="#C44569"/>
<path d="M71.7979 69.6118C71.7979 74.5955 67.7653 78.6356 62.7908 78.6356C57.8162 78.6356 53.7836 74.5955 53.7836 69.6118L53.7836 50.2752C53.7836 45.2915 57.8162 41.2515 62.7908 41.2515C67.7653 41.2515 71.798 45.2915 71.798 50.2752L71.7979 69.6118Z" fill="#786FA6"/>
<path d="M43.4897 37.3841C38.5151 37.3841 34.4825 33.3441 34.4825 28.3604C34.4825 23.3767 38.5151 19.3366 43.4897 19.3366L62.7908 19.3366C67.7653 19.3366 71.7979 23.3767 71.7979 28.3604C71.7979 33.3441 67.7653 37.3841 62.7908 37.3841L43.4897 37.3841Z" fill="#F3A683"/>
</svg>
