<svg width="9" height="13" viewBox="0 0 9 13" fill="none" xmlns="http://www.w3.org/2000/svg">
<g clip-path="url(#clip0_1007_1763)">
<path fill-rule="evenodd" clip-rule="evenodd" d="M9.01508 3.46148H0.103482V11.4028C0.103482 11.8555 0.297403 12.2677 0.612113 12.5675C0.92511 12.8657 1.35776 13.0521 1.83465 13.0521H7.28676C7.76193 13.0521 8.19458 12.8674 8.50929 12.5675C8.82229 12.2694 9.01793 11.8572 9.01793 11.4028V3.46148H9.01508ZM5.75287 0.907809L5.69163 0.499941C5.66555 0.32545 5.56461 0.175259 5.4257 0.0764036C5.28677 -0.0224572 5.10759 -0.072156 4.92274 -0.0456871L3.30608 0.176889C3.12293 0.20174 2.96528 0.2979 2.86152 0.430251C2.75776 0.562602 2.70559 0.733317 2.73337 0.909426L2.79461 1.31568L5.75111 0.907808L5.75287 0.907809ZM2.50605 5.81794C2.50605 5.72934 2.5826 5.6564 2.6756 5.6564C2.76859 5.6564 2.84514 5.72933 2.84514 5.81794V10.6946C2.84514 10.7832 2.76859 10.8561 2.6756 10.8561C2.5826 10.8561 2.50605 10.7832 2.50605 10.6946V5.81794ZM4.39024 5.81794C4.39024 5.72934 4.46679 5.6564 4.55979 5.6564C4.65278 5.6564 4.72934 5.72933 4.72934 5.81794V10.6946C4.72934 10.7832 4.65279 10.8561 4.55979 10.8561C4.4668 10.8561 4.39024 10.7832 4.39024 10.6946V5.81794ZM6.27443 5.81794C6.27443 5.72934 6.35098 5.6564 6.44398 5.6564C6.53698 5.6564 6.61353 5.72933 6.61353 5.81794V10.6946C6.61353 10.7832 6.53698 10.8561 6.44398 10.8561C6.35098 10.8561 6.27443 10.7832 6.27443 10.6946V5.81794ZM0.0773534 3.11795L-0.00996995 2.5399C-0.0315177 2.40161 0.00987659 2.26762 0.0909622 2.16282C0.173749 2.05802 0.295669 1.984 0.44083 1.96348L8.20754 0.892209C8.3527 0.87168 8.49333 0.911117 8.60334 0.988369C8.71334 1.06724 8.79103 1.1834 8.81257 1.32006L8.8999 1.89811L0.0784434 3.11524L0.0773534 3.11795Z" fill="#B72B2B"/>
</g>
<defs>
<clipPath id="clip0_1007_1763">
<rect width="9" height="13" fill="white"/>
</clipPath>
</defs>
</svg>
